<?xml version="1.0" encoding="iso-8859-1"?>
<!-- Uploaded to: SVG Repo, www.svgrepo.com, Generator: SVG Repo Mixer Tools -->
<!DOCTYPE svg PUBLIC "-//W3C//DTD SVG 1.1//EN" "http://www.w3.org/Graphics/SVG/1.1/DTD/svg11.dtd">
<svg fill="#000000" height="800px" width="800px" version="1.1" id="Capa_1" xmlns="http://www.w3.org/2000/svg" xmlns:xlink="http://www.w3.org/1999/xlink" 
	 viewBox="0 0 430.246 430.246" xml:space="preserve">
<g>
	<path d="M165.875,259.516c14.476,10.924,31.736,16.698,49.916,16.698c18.999,0,37.566-6.589,52.283-18.553
		c4.286-3.484,4.935-9.782,1.451-14.068c-3.484-4.285-9.783-4.934-14.067-1.451c-11.162,9.075-25.249,14.072-39.667,14.072
		c-13.796,0-26.891-4.379-37.868-12.663c-4.41-3.326-10.68-2.451-14.006,1.959C160.59,249.918,161.467,256.188,165.875,259.516z"/>
	<path d="M354.166,191.401c-11.54-5.289-24.272-9.911-37.844-13.737c-0.661-0.186-1.326-0.301-1.985-0.349
		c-8.648-28.747-25.932-58.516-32.415-69.129c-10.07-16.485-20.964-31.493-30.676-42.261C238.806,52.134,228.973,45.71,220.3,45.71
		c-5.558,0-10.505,2.719-13.573,7.46c-7.987,12.344-19.983,26.209-32.684,40.888c-22.139,25.588-46.478,53.727-57.375,82.861
		c-14.613,3.973-28.267,8.836-40.589,14.483C9.884,221.746,0,264.459,0,287.22c0,22.76,9.884,65.473,76.081,95.816
		c37.903,17.374,87.283,26.942,139.042,26.942s101.14-9.568,139.042-26.942c66.196-30.344,76.081-73.057,76.081-95.816
		C430.246,264.459,420.362,221.746,354.166,191.401z M215.123,311.076c47.849,0,88.27-32.392,100.5-76.398
		c35.3,13.158,56.292,32.311,56.292,51.52c0,16.456-15.703,33.228-43.083,46.013c-30.206,14.105-70.588,21.873-113.708,21.873
		s-83.503-7.768-113.708-21.873c-27.38-12.785-43.083-29.557-43.083-46.013c0-19.323,20.927-38.358,56.292-51.519
		C126.854,278.684,167.274,311.076,215.123,311.076z M189.168,107.144c12.397-14.328,24.146-27.908,32.775-40.724
		c6.841,3.653,23.933,20.694,44.042,54.057c20.622,34.212,33.433,67.282,33.433,86.304c0,46.48-37.814,84.296-84.295,84.296
		s-84.295-37.815-84.295-84.296C130.828,174.574,161.823,138.75,189.168,107.144z M345.832,364.854
		c-35.344,16.201-81.764,25.124-130.708,25.124s-95.365-8.923-130.708-25.124C28.369,339.164,20,305.187,20,287.22
		c0-17.968,8.369-51.946,64.414-77.637c8.288-3.799,17.271-7.216,26.798-10.225c-0.253,2.47-0.384,4.945-0.384,7.422
		c0,2.656,0.101,5.289,0.297,7.896c-46.298,16.378-72.794,42.349-72.794,71.522c0,24.91,19.398,47.687,54.621,64.135
		c32.8,15.316,76.188,23.751,122.171,23.751s89.371-8.435,122.171-23.751c35.223-16.448,54.621-39.225,54.621-64.135
		c0-28.894-26.244-54.864-72.003-71.252c-0.263-0.094-0.528-0.169-0.793-0.24c0.198-2.617,0.299-5.26,0.299-7.926
		c0-2.409-0.153-4.898-0.416-7.437c9.541,3.012,18.541,6.44,26.829,10.24c56.046,25.69,64.415,59.669,64.415,77.637
		C410.246,305.187,401.877,339.164,345.832,364.854z"/>
	<path d="M302.418,91.153c19.543,0,35.443-15.899,35.443-35.443c0-19.543-15.899-35.442-35.443-35.442s-35.443,15.899-35.443,35.442
		C266.975,75.254,282.875,91.153,302.418,91.153z M302.418,36.268c10.721,0,19.443,8.722,19.443,19.442s-8.722,19.443-19.443,19.443
		s-19.443-8.723-19.443-19.443S291.697,36.268,302.418,36.268z"/>
	<path d="M310.287,131.71c0,14.408,11.722,26.131,26.131,26.131s26.131-11.723,26.131-26.131s-11.722-26.131-26.131-26.131
		S310.287,117.302,310.287,131.71z M346.549,131.71c0,5.586-4.545,10.131-10.131,10.131s-10.131-4.545-10.131-10.131
		s4.545-10.131,10.131-10.131S346.549,126.124,346.549,131.71z"/>
</g>
</svg>